<svg width="20" height="17" viewBox="0 0 20 17" fill="none" xmlns="http://www.w3.org/2000/svg">
<path d="M19.13 5.11296L10.8488 2.26811C10.2922 2.07719 9.70813 2.07719 9.15156 2.26811L0.870313 5.11296C0.341875 5.29458 0 5.78997 0 6.37501C0 6.96005 0.341875 7.45544 0.87 7.63706L1.79844 7.95581C1.69531 8.161 1.61906 8.3818 1.56938 8.61323C1.23531 8.78522 1 9.14149 1 9.56251C1 9.98518 1.23656 10.3434 1.57281 10.5144L1.00875 14.2285C0.958437 14.5602 1.13094 14.875 1.36312 14.875H2.63656C2.86875 14.875 3.04156 14.5602 2.99094 14.2285L2.42719 10.5144C2.76344 10.3434 3 9.98518 3 9.56251C3 9.21055 2.82844 8.91372 2.58031 8.72014C2.62687 8.56542 2.69906 8.42596 2.78562 8.29481L4.45656 8.86889L4 12.75C4 13.9237 6.68625 14.875 10 14.875C13.3138 14.875 16 13.9237 16 12.75L15.5434 8.86889L19.13 7.63672C19.6581 7.45544 20 6.96005 20 6.37501C20 5.78997 19.6581 5.29458 19.13 5.11296ZM14.9838 12.679C14.6475 13.0551 12.9388 13.8125 10 13.8125C7.06125 13.8125 5.3525 13.0551 5.01625 12.679L5.42531 9.20159L9.15156 10.4816C9.23281 10.5095 9.95531 10.788 10.8488 10.4816L14.575 9.20159L14.9838 12.679ZM18.8213 6.62669L10.54 9.47153C10.1866 9.59305 9.81344 9.59305 9.46 9.47153L3.97031 7.58559L10.0919 6.36571C10.3634 6.31192 10.5422 6.03434 10.4913 5.74581C10.4406 5.45694 10.1737 5.26801 9.90812 5.3218L3.54 6.59016C3.1525 6.66719 2.80531 6.84417 2.50625 7.08256L1.17844 6.62635C0.933125 6.54169 0.945312 6.20335 1.17844 6.12333L9.45969 3.27848C9.93156 3.11645 10.3297 3.20643 10.5397 3.27848L18.8209 6.12333C19.0519 6.20268 19.0681 6.54169 18.8213 6.62669V6.62669Z" fill="black"/>
</svg>
